<svg xmlns="http://www.w3.org/2000/svg" viewBox="-0.75 -0.75 24 24" height="24" width="24"><g><g><path d="M9.84375 10.546875a4.921875 4.921875 0 0 1 0 -9.84375" fill="none" stroke="#000000" stroke-linecap="round" stroke-linejoin="round" stroke-width="1.5"></path><path d="M0.703125 21.796875a9.15 9.15 0 0 1 9.140625 -9.140625" fill="none" stroke="#000000" stroke-linecap="round" stroke-linejoin="round" stroke-width="1.5"></path></g><g><g><path d="m14.643749999999999 3.6374999999999997 1.528125 -1.528125" fill="none" stroke="#000000" stroke-linecap="round" stroke-linejoin="round" stroke-width="1.5"></path><path d="m14.643749999999999 7.612499999999999 1.528125 1.528125" fill="none" stroke="#000000" stroke-linecap="round" stroke-linejoin="round" stroke-width="1.5"></path><path d="M12.65625 2.8125a2.8125 2.8125 0 0 1 0 5.625" fill="none" stroke="#000000" stroke-linecap="round" stroke-linejoin="round" stroke-width="1.5"></path><path d="m12.65625 2.8125 0 -2.109375" fill="none" stroke="#000000" stroke-linecap="round" stroke-linejoin="round" stroke-width="1.5"></path><path d="m12.65625 8.4375 0 2.109375" fill="none" stroke="#000000" stroke-linecap="round" stroke-linejoin="round" stroke-width="1.5"></path><path d="m15.46875 5.625 2.109375 0" fill="none" stroke="#000000" stroke-linecap="round" stroke-linejoin="round" stroke-width="1.5"></path></g><g><path d="M21.796875 21.796875v-1.40625h-2.25a6.95625 6.95625 0 0 0 -1.021875 -2.475l1.5843749999999999 -1.5843749999999999 -1.9875 -1.9875 -1.5843749999999999 1.59375A6.95625 6.95625 0 0 0 14.0625 14.90625v-2.25h-1.40625" fill="none" stroke="#000000" stroke-linecap="round" stroke-linejoin="round" stroke-width="1.5"></path><path d="M12.65625 18.28125a3.515625 3.515625 0 0 1 3.515625 3.515625" fill="none" stroke="#000000" stroke-linecap="round" stroke-linejoin="round" stroke-width="1.5"></path></g></g></g></svg>