<svg id="Layer_1" data-name="Layer 1" xmlns="http://www.w3.org/2000/svg" viewBox="0 0 579.86 492.33"><defs><style>.cls-1,.cls-6{fill:none;}.cls-2,.cls-4{fill:#231f20;}.cls-2{stroke:#231f20;}.cls-2,.cls-3,.cls-4,.cls-5,.cls-6{stroke-miterlimit:10;}.cls-3,.cls-5{fill:#fff;}.cls-3{stroke:#000;}.cls-3,.cls-5,.cls-6{fill-rule:evenodd;}.cls-4,.cls-5,.cls-6{stroke:#fff;}</style></defs><rect class="cls-1" width="579.86" height="492.33"/><circle class="cls-2" cx="124.86" cy="166.94" r="37.16" transform="translate(-87.87 65.5) rotate(-33.82)"/><path class="cls-3" d="M127.24,190l2.32-.35a23.27,23.27,0,1,0-4.7.47Z" transform="translate(-16.07 -32.25)"/><circle class="cls-2" cx="108.79" cy="246.17" r="37.16"/><path class="cls-3" d="M127.24,301.5l2.32-.35a23.27,23.27,0,1,0-4.7.47Z" transform="translate(-16.07 -32.25)"/><rect class="cls-4" x="192.73" y="325.12" width="315.5" height="65.03" rx="18.58"/><path class="cls-5" d="M506.21,408.43l.47-.08.41-.1.43-.16a4.67,4.67,0,0,0,2.84-4.6v-27.2a4.66,4.66,0,0,0-4.15-4.94l-.83,0H227.71a4.65,4.65,0,0,0-4.93,4.16l-.05.84v27.15a4.7,4.7,0,0,0,4.16,5l.82,0H505.38Z" transform="translate(-16.07 -32.25)"/><path class="cls-6" d="M128.89,206.22l3.92-.59a39.52,39.52,0,1,0-8,.8Z" transform="translate(-16.07 -32.25)"/><path class="cls-6" d="M128.89,317.69a38.93,38.93,0,0,0,7.71-1.57,39.54,39.54,0,1,0-7.71,1.57Z" transform="translate(-16.07 -32.25)"/><rect class="cls-4" x="192.73" y="213.65" width="315.5" height="65.02" rx="18.58"/><path class="cls-5" d="M506.21,297l.47-.07.41-.11.43-.15a4.67,4.67,0,0,0,2.84-4.61V264.82a4.66,4.66,0,0,0-4.15-4.94l-.83,0H227.71a4.65,4.65,0,0,0-4.93,4.15l-.05.85V292a4.69,4.69,0,0,0,4.16,5l.82,0H505.38Z" transform="translate(-16.07 -32.25)"/><path class="cls-6" d="M507.85,313.15a20.89,20.89,0,0,0,18.77-20.74v-28a20.88,20.88,0,0,0-20.84-20.84H227.32a20.89,20.89,0,0,0-20.84,20.84v28a20.88,20.88,0,0,0,20.84,20.84H505.78Z" transform="translate(-16.07 -32.25)"/><path class="cls-6" d="M507.85,424.62a20.91,20.91,0,0,0,18.77-20.74v-28a20.89,20.89,0,0,0-20.84-20.84H227.32a20.88,20.88,0,0,0-20.84,20.84v28a20.88,20.88,0,0,0,20.84,20.84H505.78Z" transform="translate(-16.07 -32.25)"/><rect class="cls-4" x="190.41" y="102.18" width="315.5" height="65.02" rx="18.58"/><path class="cls-5" d="M503.89,185.48l.47-.07.41-.11.43-.16a4.66,4.66,0,0,0,2.84-4.6v-27.2a4.67,4.67,0,0,0-4.15-4.94l-.83,0H225.39a4.66,4.66,0,0,0-4.94,4.16l0,.85v27.14a4.69,4.69,0,0,0,4.16,5l.82,0H503.06Z" transform="translate(-16.07 -32.25)"/><path class="cls-6" d="M505.53,201.67a20.89,20.89,0,0,0,18.77-20.74V153a20.88,20.88,0,0,0-20.84-20.84H225A20.88,20.88,0,0,0,204.16,153v28A20.89,20.89,0,0,0,225,201.78H503.46Z" transform="translate(-16.07 -32.25)"/><circle class="cls-2" cx="108.79" cy="359.97" r="37.16"/><path class="cls-3" d="M127.25,415.3l2.31-.35a23.26,23.26,0,1,0-4.7.47Z" transform="translate(-16.07 -32.25)"/><path class="cls-6" d="M128.89,431.49a38.23,38.23,0,0,0,7.71-1.57,39.54,39.54,0,1,0-7.71,1.57Z" transform="translate(-16.07 -32.25)"/></svg>